<?xml version="1.0" standalone="no"?><!DOCTYPE svg PUBLIC "-//W3C//DTD SVG 1.1//EN" "http://www.w3.org/Graphics/SVG/1.1/DTD/svg11.dtd"><svg t="1588680305333" class="icon" viewBox="0 0 1024 1024" version="1.1" xmlns="http://www.w3.org/2000/svg" p-id="1921" xmlns:xlink="http://www.w3.org/1999/xlink" width="200" height="200"><defs><style type="text/css"></style></defs><path d="M894.742923 774.832582C863.271635 612.50699 727.921433 493.365685 563.939457 481.534373l0-55.962103c89.799653-12.777816 158.776199-90.03628 158.776199-183.385326 0-102.340843-82.937493-185.278336-185.278336-185.278336S352.277296 139.964414 352.277296 242.186944c0 93.349047 68.976545 170.489197 158.776199 183.385326L511.053495 481.534373C347.544772 493.010745 211.011438 612.625303 179.421837 775.069209c-45.195609 12.067938-78.441594 53.240901-78.441594 102.22253 0 58.446678 47.443559 105.890237 105.890237 105.890237s105.890237-47.443559 105.890237-105.890237c0-49.218255-33.600924-90.627845-79.151473-102.459157 30.288157-132.274061 142.922241-229.172501 277.562565-240.293934l0 240.293934c-45.668862 11.712998-79.388099 53.240901-79.388099 102.459157 0 58.446678 47.443559 105.890237 105.890237 105.890237 58.446678 0 105.890237-47.443559 105.890237-105.890237 0-49.336568-33.719237-90.746158-79.388099-102.459157l0-240.175621c134.995263 11.358059 246.682842 108.019873 276.734373 240.53056-45.077296 12.186251-78.323281 53.240901-78.323281 102.22253 0 58.446678 47.443559 105.890237 105.890237 105.890237s105.890237-47.443559 105.890237-105.890237C974.131023 827.95517 940.411785 786.545581 894.742923 774.832582zM259.638128 877.291739c0 29.223339-23.780936 52.885962-52.885962 52.885962s-52.885962-23.780936-52.885962-52.885962 23.780936-52.885962 52.885962-52.885962S259.638128 848.186713 259.638128 877.291739zM590.441594 877.291739c0 29.223339-23.780936 52.885962-52.885962 52.885962-29.223339 0-52.885962-23.780936-52.885962-52.885962s23.780936-52.885962 52.885962-52.885962C566.778972 824.405777 590.441594 848.186713 590.441594 877.291739zM537.555633 374.579318c-72.999191 0-132.274061-59.393183-132.274061-132.274061S464.556441 109.912883 537.555633 109.912883s132.274061 59.393183 132.274061 132.274061S610.554824 374.579318 537.555633 374.579318zM868.359099 930.296014c-29.223339 0-52.885962-23.780936-52.885962-52.885962s23.780936-52.885962 52.885962-52.885962 52.885962 23.780936 52.885962 52.885962S897.464125 930.296014 868.359099 930.296014z" p-id="1922"></path></svg>