<?xml version="1.0" standalone="no"?><!DOCTYPE svg PUBLIC "-//W3C//DTD SVG 1.1//EN" "http://www.w3.org/Graphics/SVG/1.1/DTD/svg11.dtd"><svg t="1588422068378" class="icon" viewBox="0 0 1024 1024" version="1.1" xmlns="http://www.w3.org/2000/svg" p-id="2087" xmlns:xlink="http://www.w3.org/1999/xlink" width="200" height="200"><defs><style type="text/css"></style></defs><path d="M226 295h-39c-17.673 0-32-14.327-32-32 0-17.673 14.327-32 32-32h13v-0.242c18.242-7.924 31-26.101 31-47.258 0-0.254-0.002-0.507-0.005-0.76l0.002-0.238a47.984 47.984 0 0 0-1.955-13.116C222.905 147.805 203.048 132 179.5 132c-26.585 0-48.465 20.143-51.21 46H128v724h663V295H279v6-6h-53z m0.02-64h-0.003H855c26.51 0 48-21.49 48-48s-21.49-48-48-48H284.222a112.312 112.312 0 0 0-23.872-33C281.7 122.394 295 151.144 295 183c0 17.178-3.867 33.452-10.778 48H226.02zM848 960H64V164c0-55.228 44.772-100 100-100h684c61.856 0 112 50.144 112 112s-50.144 112-112 112v672zM232 397h451c17.673 0 32 14.327 32 32 0 17.673-14.327 32-32 32H232c-17.673 0-32-14.327-32-32 0-17.673 14.327-32 32-32z m0 161h451c17.673 0 32 14.327 32 32 0 17.673-14.327 32-32 32H232c-17.673 0-32-14.327-32-32 0-17.673 14.327-32 32-32z m0 161h451c17.673 0 32 14.327 32 32 0 17.673-14.327 32-32 32H232c-17.673 0-32-14.327-32-32 0-17.673 14.327-32 32-32z" p-id="2088"></path></svg>