<?xml version="1.0" standalone="no"?><!DOCTYPE svg PUBLIC "-//W3C//DTD SVG 1.1//EN" "http://www.w3.org/Graphics/SVG/1.1/DTD/svg11.dtd"><svg t="1586841019598" class="icon" viewBox="0 0 1024 1024" version="1.1" xmlns="http://www.w3.org/2000/svg" p-id="14115" xmlns:xlink="http://www.w3.org/1999/xlink" width="200" height="200"><defs><style type="text/css"></style></defs><path d="M 1021.17 860.861 c 0 105.164 -256.065 160.186 -509.004 160.186 c -252.949 0 -509.022 -55.0217 -509.022 -160.186 c 0 -93.3274 197.239 -132.232 282.065 -144.631 c 12.5683 -1.78093 24.2924 7.10145 26.0896 19.9304 c 1.82549 12.8537 -6.9395 24.7687 -19.5523 26.6086 c -176.643 25.8055 -232.053 73.8678 -232.053 98.0922 c 0 46.1399 169.903 107.984 452.473 107.984 c 282.56 0 452.457 -61.8444 452.457 -107.984 c 0 -24.4117 -56.0428 -72.7383 -234.391 -98.4191 c -12.6219 -1.82488 -21.4001 -13.7345 -19.627 -26.5617 c 1.79598 -12.8609 13.5196 -21.7126 26.0668 -19.9912 c 85.5383 12.3395 284.499 51.1238 284.499 144.972 Z m 0 0" p-id="14116" fill="#dbdbdb"></path><path d="M 512.163 69.8579 c 134.405 0 243.776 111.426 243.776 248.4 c 0 189.766 -188.81 402.988 -243.962 461.221 c -55.3094 -57.1717 -243.6 -266.155 -243.6 -461.221 c 0 -136.966 109.349 -248.4 243.787 -248.4 Z m -15.7767 779.83 l 15.9592 15.1716 l 15.7683 -15.3667 c 11.7458 -11.4635 287.607 -283.578 287.607 -537.194 C 815.721 141.751 679.542 3.01037 512.155 3.01037 C 344.774 3.01037 208.584 141.751 208.584 312.299 c 0 260.45 276.055 526.205 287.802 537.411 v -0.021073 Z M 414.543 302.504 c 0 -54.8332 43.7785 -99.436 97.5882 -99.436 c 53.8326 0 97.6406 44.6028 97.6406 99.436 c 0 54.8338 -43.8086 99.4589 -97.6406 99.4589 c -53.8097 0.000602 -97.5882 -44.6245 -97.5882 -99.4589 Z m 251.777 0 c 0 -86.6076 -69.1626 -157.058 -154.189 -157.058 c -84.9802 0 -154.122 70.451 -154.122 157.058 c 0 86.5992 69.1415 157.06 154.122 157.06 c 85.026 0.000602 154.189 -70.4612 154.189 -157.06 Z m 0 0" p-id="14117" fill="#dbdbdb"></path></svg>