<?xml version="1.0" standalone="no"?><!DOCTYPE svg PUBLIC "-//W3C//DTD SVG 1.1//EN" "http://www.w3.org/Graphics/SVG/1.1/DTD/svg11.dtd"><svg t="1588737765119" class="icon" viewBox="0 0 1024 1024" version="1.1" xmlns="http://www.w3.org/2000/svg" p-id="2234" xmlns:xlink="http://www.w3.org/1999/xlink" width="200" height="200"><defs><style type="text/css"></style></defs><path d="M311.795512 590.922927c3.096976 3.096976 8.192 3.096976 11.288976 0l101.700683-101.700683 86.016 86.115902c3.096976 3.096976 8.192 3.096976 11.288975 0l226.07922-226.279024c3.096976-3.096976 3.096976-8.192 0-11.288976l-36.764098-36.764097c-3.096976-3.096976-8.192-3.096976-11.288975 0L516.49561 484.826537l-86.016-86.115903c-3.096976-3.096976-8.192-3.096976-11.288976 0L275.031415 542.869854c-3.096976 3.096976-3.096976 8.192 0 11.288975l36.764097 36.764098zM903.118049 159.843902H547.465366V95.906341c0-4.395707-3.596488-7.992195-7.992195-7.992195h-55.945366c-4.395707 0-7.992195 3.596488-7.992195 7.992195v63.937561H119.882927c-17.682732 0-31.96878 14.286049-31.968781 31.968781v519.492683c0 17.682732 14.286049 31.96878 31.968781 31.96878h356.052293v31.968781L311.296 883.237463c-3.69639 2.397659-4.695415 7.292878-2.297756 10.989269l30.270439 47.153951v0.099902c2.397659 3.69639 7.39278 4.695415 11.089171 2.297756L511.500488 838.081561l161.142634 105.69678c3.69639 2.397659 8.691512 1.398634 11.089171-2.297756v-0.099902l30.270439-47.153951c2.397659-3.69639 1.298732-8.59161-2.297756-10.989269L547.465366 775.542634V743.274146h355.652683c17.682732 0 31.96878-14.286049 31.96878-31.96878V191.812683c0-17.682732-14.286049-31.96878-31.96878-31.968781z m-39.960976 511.500488H159.843902V231.773659h703.313171v439.570731z" p-id="2235"></path></svg>