<?xml version="1.0" standalone="no"?><!DOCTYPE svg PUBLIC "-//W3C//DTD SVG 1.1//EN" "http://www.w3.org/Graphics/SVG/1.1/DTD/svg11.dtd"><svg t="1588479225495" class="icon" viewBox="0 0 1102 1024" version="1.1" xmlns="http://www.w3.org/2000/svg" p-id="1584" xmlns:xlink="http://www.w3.org/1999/xlink" width="215.234375" height="200"><defs><style type="text/css"></style></defs><path d="M67.945821 0h965.830306c16.038414 0.69581 31.960861 6.366659 44.10274 17.012548 15.168652 12.918867 24.295357 32.598686 24.225776 52.545232 0.011597 210.2853 0 420.5706 0 630.855901-0.150759 12.014315 0.916149 24.31855-2.644077 35.996557-6.297078 22.683398-24.909989 41.40068-47.570192 47.767338-12.791302 3.966116-26.301608 2.388947-39.464009 2.702062-99.628358 0.011597-199.256716-0.011597-298.885074 0.011596-41.794972 72.503375-83.775493 144.913975-125.454496 217.463738-8.326523 11.92154-22.694994 19.320317-37.249015 19.041993-15.296217 0-30.20974-8.500476-38.026002-21.639683-41.342695-71.633613-82.685391-143.267225-124.074473-214.866048-106.400906-0.011597-212.801812 0-319.202718-0.011596-18.32299-0.03479-36.42564-7.851053-49.135765-21.036648C7.700294 752.912525 0.47547 734.86786 0.684213 716.742016 0.672616 501.771597 0.69581 286.801178 0.672616 71.819162 0.115968 52.452458 7.955425 33.016172 22.022378 19.656625 34.222242 7.653907 50.968063 1.020521 67.945821 0M47.094723 69.569377c-0.057984 214.158641 0 428.317282-0.034791 642.475923-0.057984 4.928652-0.173952 10.100838 2.017848 14.658392 3.595017 8.361314 12.466591 14.101744 21.581699 13.800226 114.959366-0.011597 229.907135 0 344.854904-0.011596 45.262424 78.266999 90.397282 156.615176 135.659705 234.870577 45.181246-78.290193 90.397282-156.557191 135.578528-234.847384 115.539207-0.057984 231.078414 0.023194 346.617622-0.046387 12.339026-0.057984 22.984915-11.515651 22.347089-23.80829-0.011597-215.701019 0.03479-431.402039-0.023193-647.114655 0.231937-12.466591-11.132956-23.448788-23.55316-22.973318-320.501563-0.046387-641.014723-0.046387-961.516285 0-12.431801-0.452276-23.750306 10.541518-23.529966 22.996512z" p-id="1585"></path><path d="M536.434519 115.805934c56.348992-5.728834 114.344734 5.496897 164.292276 32.297169 62.518505 33.13214 111.955787 90.118958 135.706093 156.800725 17.731552 49.158958 21.546908 103.188584 11.237327 154.400181-7.595923 37.817259-22.903737 74.05735-44.786953 105.832661-23.240045 33.862741-53.79769 62.680861-88.970872 83.868268-35.057214 21.187407-74.718369 34.709309-115.411643 39.324847-47.454224 5.427316-96.334858-0.869762-140.599954-18.902831-69.975266-27.762809-127.750668-84.413318-157.229808-153.657985-31.125889-71.888743-30.951937-156.557191 0.579842-228.283578 29.606704-68.57205 87.011008-124.607928 156.429626-152.231574 25.118732-10.27479 51.756648-16.734224 78.754066-19.447883m3.467452 46.282945c-53.588947 5.462106-104.858528 29.827044-143.267226 67.539932-30.928743 30.151755-53.61214 68.699615-64.687112 110.459796-12.536172 46.839592-10.529921 97.482945 5.833205 143.151257 14.229309 39.962673 39.232072 76.028811 71.691597 103.35094 32.204394 27.484485 71.830759 46.155379 113.521359 53.519366 46.549672 8.314926 95.534677 2.667271 138.837237-16.374723 41.864553-18.230215 78.278596-48.660294 103.803216-86.500747 23.970646-35.335538 38.257939-77.142106 40.832435-119.760453 2.736852-42.780702-6.134723-86.257214-25.686976-124.433975-21.199003-41.783375-54.853001-77.095719-95.499887-100.382152-43.627271-25.199909-95.302741-35.961767-145.377848-30.569241z" p-id="1586"></path><path d="M511.942016 225.709083c25.802945-9.660159 54.168788-10.634292 81.235787-6.807339 23.529966 3.513839 46.584462 13.09282 63.968109 29.618301 16.073205 14.623601 28.157101 34.477373 30.360498 56.383783 2.458528 18.485345-2.365753 37.643307-13.011642 52.904734-11.7012 16.293545-26.893046 29.641495-41.887746 42.803896-11.898347 10.437146-25.281087 19.911755-33.746773 33.561223-6.041948 12.014315-5.380929 26.023284-5.508494 39.116104-19.853771 0.023194-39.695946 0.023194-59.549716 0-0.834972-23.251642-0.498664-48.323986 12.582559-68.548856 17.383647-26.429173 45.633522-42.398007 67.377576-64.687112 12.095493-12.988448 13.950985-34.04829 4.418392-49.0082-8.372911-13.672661-23.669128-22.045572-39.417621-23.715515-20.016127-2.690464-42.340023 1.948267-56.557735 17.128516-10.054451 11.457667-16.42111 25.849332-19.818981 40.612095-2.574496 4.256036-7.874247 5.624462-12.36222 6.923307-11.457667 2.667271-23.785096 3.038369-35.045617-0.672616-6.007157-1.983058-12.199864-6.749354-12.257848-13.637871 0.057984-11.504054 2.945595-22.89214 7.468357-33.433658 11.573635-26.765481 34.396195-48.405164 61.753115-58.540792zM555.778029 506.004439c17.917101-3.653001 37.480951 5.856399 45.447973 22.358687 5.114202 10.263194 5.554881 22.741382 1.078505 33.306093-5.23017 12.582559-17.093726 22.080362-30.464869 24.596874-15.435379 3.154337-32.320362-3.096353-41.783375-15.7253-7.735085-9.98487-10.251597-23.727112-6.563805-35.811008 4.209649-14.658392 17.325663-26.081268 32.285571-28.725346z" p-id="1587"></path></svg>