<?xml version="1.0" standalone="no"?><!DOCTYPE svg PUBLIC "-//W3C//DTD SVG 1.1//EN" "http://www.w3.org/Graphics/SVG/1.1/DTD/svg11.dtd"><svg t="1586443147068" class="icon" viewBox="0 0 1024 1024" version="1.1" xmlns="http://www.w3.org/2000/svg" p-id="3536" xmlns:xlink="http://www.w3.org/1999/xlink" width="200" height="200"><defs><style type="text/css"></style></defs><path d="M688.323596 634.534831a178.91236 178.91236 0 0 1-86.292135-23.011235 18.98427 18.98427 0 0 1-7.191012-25.887641 19.27191 19.27191 0 0 1 25.887641-7.191011 143.820225 143.820225 0 0 0 169.995506-25.31236l6.90337-7.191011 7.766292 0.575281a79.964045 79.964045 0 0 0 16.683146 1.438202 93.195506 93.195506 0 1 0 0-186.103371 105.851685 105.851685 0 0 0-16.683146 1.438203l-10.067415 2.013483-6.903371-7.478652a141.231461 141.231461 0 0 0-66.157303-38.831461l-9.492135-2.301123-3.451686-8.916854A209.977528 209.977528 0 0 0 359.550562 246.795506a18.98427 18.98427 0 1 1-28.764045-25.31236 247.658427 247.658427 0 0 1 411.325843 64.431461 178.91236 178.91236 0 0 1 67.595505 39.694382h13.519101a131.164045 131.164045 0 0 1 0 262.32809 98.948315 98.948315 0 0 1-13.23146 0 176.898876 176.898876 0 0 1-121.67191 46.597752z" p-id="3537"></path><path d="M293.393258 634.534831a176.323596 176.323596 0 0 1 0-352.647191h11.505618a183.802247 183.802247 0 0 1 36.242697 6.903371 111.029213 111.029213 0 0 1 79.388764 106.714607 112.179775 112.179775 0 0 1-57.52809 97.510112 86.292135 86.292135 0 0 1-40.844944 10.355057 83.41573 83.41573 0 0 1-83.41573-83.415731 18.98427 18.98427 0 0 1 37.968539 0 45.447191 45.447191 0 0 0 45.447191 45.447191A44.008989 44.008989 0 0 0 345.168539 460.224719a73.348315 73.348315 0 0 0-14.094382-134.61573 136.629213 136.629213 0 0 0-28.764045-5.465169h-8.916854a138.355056 138.355056 0 1 0 87.730338 245.357304l211.41573-172.58427a18.98427 18.98427 0 1 1 23.874157 28.764045l-212.278652 173.734831a176.898876 176.898876 0 0 1-110.741573 39.119101z" p-id="3538"></path><path d="M619.002247 475.757303a18.696629 18.696629 0 0 1-18.984269-18.984269v-50.91236h-51.2a19.27191 19.27191 0 0 1 0-38.25618h70.184269a19.27191 19.27191 0 0 1 18.98427 19.27191v69.89663a18.98427 18.98427 0 0 1-18.98427 18.984269z" p-id="3539"></path><path d="M266.377655 722.438872m-8.94927 8.949271l-44.136175 44.136175q-8.949271 8.949271-17.898541 0l-8.135701-8.1357q-8.949271-8.949271 0-17.898541l44.136175-44.136176q8.949271-8.949271 17.898541 0l8.135701 8.135701q8.949271 8.949271 0 17.898541Z" p-id="3540"></path><path d="M175.582925 813.296066m-8.94927 8.94927l-44.136175 44.136175q-8.949271 8.949271-17.898541 0l-8.135701-8.1357q-8.949271-8.949271 0-17.898541l44.136175-44.136175q8.949271-8.949271 17.898541 0l8.135701 8.1357q8.949271 8.949271 0 17.898541Z" p-id="3541"></path><path d="M449.443952 722.328751m-8.949271 8.949271l-44.136175 44.136175q-8.949271 8.949271-17.898541 0l-8.1357-8.1357q-8.949271-8.949271 0-17.898541l44.136175-44.136176q8.949271-8.949271 17.898541 0l8.1357 8.135701q8.949271 8.949271 0 17.898541Z" p-id="3542"></path><path d="M358.649222 813.185945m-8.949271 8.94927l-44.136175 44.136175q-8.949271 8.949271-17.898541 0l-8.1357-8.1357q-8.949271-8.949271 0-17.898541l44.136175-44.136175q8.949271-8.949271 17.898541 0l8.1357 8.1357q8.949271 8.949271 0 17.898541Z" p-id="3543"></path><path d="M632.208649 722.462701m-8.94927 8.949271l-44.136175 44.136175q-8.949271 8.949271-17.898542 0l-8.1357-8.1357q-8.949271-8.949271 0-17.898541l44.136175-44.136176q8.949271-8.949271 17.898541 0l8.135701 8.135701q8.949271 8.949271 0 17.898541Z" p-id="3544"></path><path d="M541.617312 813.116502m-8.949271 8.949271l-44.136175 44.136175q-8.949271 8.949271-17.898541 0l-8.1357-8.135701q-8.949271-8.949271 0-17.898541l44.136175-44.136175q8.949271-8.949271 17.898541 0l8.1357 8.135701q8.949271 8.949271 0 17.898541Z" p-id="3545"></path><path d="M815.246182 722.422023m-8.949271 8.94927l-44.136175 44.136176q-8.949271 8.949271-17.898541 0l-8.135701-8.135701q-8.949271-8.949271 0-17.898541l44.136176-44.136175q8.949271-8.949271 17.898541 0l8.1357 8.1357q8.949271 8.949271 0 17.898541Z" p-id="3546"></path><path d="M724.634505 813.02672m-8.949271 8.949271l-44.136175 44.136175q-8.949271 8.949271-17.898541 0l-8.1357-8.135701q-8.949271-8.949271 0-17.898541l44.136175-44.136175q8.949271-8.949271 17.898541 0l8.1357 8.135701q8.949271 8.949271 0 17.898541Z" p-id="3547"></path></svg>