<?xml version="1.0" standalone="no"?><!DOCTYPE svg PUBLIC "-//W3C//DTD SVG 1.1//EN" "http://www.w3.org/Graphics/SVG/1.1/DTD/svg11.dtd"><svg t="1586443233035" class="icon" viewBox="0 0 1024 1024" version="1.1" xmlns="http://www.w3.org/2000/svg" p-id="4681" xmlns:xlink="http://www.w3.org/1999/xlink" width="200" height="200"><defs><style type="text/css"></style></defs><path d="M511.997442 958.712041c-126.297474 0-228.826616-102.21294-228.826616-227.875964 0-85.668125 58.773592-151.831011 99.383498-188.634218L382.554324 193.884802c0-70.90898 57.688887-128.597867 128.597867-128.597867 70.907956 0 128.597867 57.688887 128.597867 128.597867l0 349.546048c67.683519 39.367613 98.56383 105.279788 98.56383 187.405227C738.313887 856.499102 636.669906 958.712041 511.997442 958.712041zM511.152191 119.43416c-41.045835 0-74.451666 33.405831-74.451666 74.451666l0 362.554316c0 9.240455-4.91801 17.84646-12.704346 22.816658-39.98876 25.539676-86.791715 80.558757-86.791715 151.580301 0 95.786577 78.410837 173.72874 174.847214 173.72874 94.821599 0 171.923628-77.942163 171.923628-173.72874 0-47.371914-14.402011-111.446231-83.974553-147.628292-8.963139-4.652973-14.395872-13.920034-14.395872-24.020066L585.60488 193.884802C585.603857 152.838967 552.211329 119.43416 511.152191 119.43416z" p-id="4682"></path><path d="M513.174244 882.014218c-7.469112 0-13.537318-6.054903-13.537318-13.537318 0-7.482415 6.068206-13.537318 13.537318-13.537318 50.933019 0 97.465822-31.912827 115.78812-79.396281 2.697435-6.978948 10.561543-10.44284 17.502629-7.746428 6.979972 2.669806 10.443863 10.522658 7.759731 17.502629C631.898229 843.149049 575.212182 882.014218 513.174244 882.014218z" p-id="4683"></path><path d="M650.338207 755.794515c-0.357134 0-0.726547-0.026606-1.096984-0.053212-7.455809-0.607844-13.008268-7.138584-12.399401-14.594393 0.265036-3.384074 0.409322-6.821359 0.409322-10.310833 0-7.482415 6.068206-13.537318 13.537318-13.537318 7.482415 0 13.536294 6.054903 13.536294 13.537318 0 4.230348-0.171915 8.380878-0.50142 12.505825C663.253354 750.427274 657.319202 755.794515 650.338207 755.794515z" p-id="4684"></path><path d="M490.4241 506.364653l-67.683519 0c-7.469112 0-13.536294-6.054903-13.536294-13.537318 0-7.482415 6.067182-13.536294 13.536294-13.536294l67.683519 0c7.482415 0 13.536294 6.054903 13.536294 13.536294C503.959372 500.310773 497.905492 506.364653 490.4241 506.364653z" p-id="4685"></path><path d="M490.4241 452.218452l-67.683519 0c-7.469112 0-13.536294-6.054903-13.536294-13.536294 0-7.482415 6.067182-13.537318 13.536294-13.537318l67.683519 0c7.482415 0 13.536294 6.054903 13.536294 13.537318C503.959372 446.163549 497.905492 452.218452 490.4241 452.218452z" p-id="4686"></path><path d="M490.4241 316.851415l-67.683519 0c-7.469112 0-13.536294-6.054903-13.536294-13.537318 0-7.482415 6.067182-13.536294 13.536294-13.536294l67.683519 0c7.482415 0 13.536294 6.054903 13.536294 13.536294C503.959372 310.797535 497.905492 316.851415 490.4241 316.851415z" p-id="4687"></path><path d="M490.4241 262.705214l-67.683519 0c-7.469112 0-13.536294-6.054903-13.536294-13.536294 0-7.482415 6.067182-13.537318 13.536294-13.537318l67.683519 0c7.482415 0 13.536294 6.054903 13.536294 13.537318C503.959372 256.650311 497.905492 262.705214 490.4241 262.705214z" p-id="4688"></path><path d="M531.034007 384.534933 422.740582 384.534933c-7.469112 0-13.536294-6.054903-13.536294-13.536294 0-7.482415 6.067182-13.537318 13.536294-13.537318l108.294448 0c7.481392 0 13.536294 6.054903 13.536294 13.537318C544.570301 378.481054 538.515399 384.534933 531.034007 384.534933z" p-id="4689"></path></svg>