<?xml version="1.0" standalone="no"?><!DOCTYPE svg PUBLIC "-//W3C//DTD SVG 1.1//EN" "http://www.w3.org/Graphics/SVG/1.1/DTD/svg11.dtd"><svg t="1586840285486" class="icon" viewBox="0 0 1024 1024" version="1.1" xmlns="http://www.w3.org/2000/svg" p-id="5632" xmlns:xlink="http://www.w3.org/1999/xlink" width="200" height="200"><defs><style type="text/css"></style></defs><path d="M505.984 975.317333c-259.2 0-469.333333-210.133333-469.333333-469.333333s210.133333-469.333333 469.333333-469.333333 469.333333 210.133333 469.333333 469.333333S765.226667 975.317333 505.984 975.317333zM505.984 124.672c-210.602667 0-381.354667 170.709333-381.354667 381.354667 0 210.602667 170.709333 381.354667 381.354667 381.354667 210.602667 0 381.354667-170.752 381.354667-381.354667C887.338667 295.381333 716.586667 124.672 505.984 124.672zM696.661333 550.016l-88.021333 0-58.666667 0-43.989333 0 0 0c-24.32 0-43.989333-19.712-43.989333-43.989333L461.994667 242.005333c0-24.277333 19.669333-43.989333 43.989333-43.989333 24.277333 0 43.989333 19.712 43.989333 43.989333l0 219.989333 58.666667 0 88.021333 0c24.277333 0 43.989333 19.712 43.989333 43.989333S720.938667 550.016 696.661333 550.016z" p-id="5633" fill="#dbdbdb"></path></svg>