<?xml version="1.0" standalone="no"?><!DOCTYPE svg PUBLIC "-//W3C//DTD SVG 1.1//EN" "http://www.w3.org/Graphics/SVG/1.1/DTD/svg11.dtd"><svg t="1586442646528" class="icon" viewBox="0 0 1024 1024" version="1.1" xmlns="http://www.w3.org/2000/svg" p-id="1832" xmlns:xlink="http://www.w3.org/1999/xlink" width="200" height="200"><defs><style type="text/css"></style></defs><path d="M512 853.333333c-117.333333 0-213.333333-96-213.333333-213.333333 0-12.8-8.533333-21.333333-21.333333-21.333333-12.8 0-21.333333 8.533333-21.333333 21.333333 0 140.8 115.2 256 256 256 12.8 0 21.333333-8.533333 21.333333-21.333333C533.333333 861.866667 524.8 853.333333 512 853.333333zM512 42.666667C469.333333 42.666667 170.666667 405.333333 170.666667 640c0 187.733333 153.6 341.333333 341.333333 341.333333 187.733333 0 341.333333-153.6 341.333333-341.333333C853.333333 405.333333 554.666667 42.666667 512 42.666667zM512 938.666667c-164.266667 0-298.666667-138.666667-298.666667-309.333333C213.333333 426.666667 490.666667 93.866667 512 93.866667S810.666667 426.666667 810.666667 629.333333C810.666667 800 676.266667 938.666667 512 938.666667z" p-id="1833"></path></svg>