<?xml version="1.0" standalone="no"?><!DOCTYPE svg PUBLIC "-//W3C//DTD SVG 1.1//EN" "http://www.w3.org/Graphics/SVG/1.1/DTD/svg11.dtd"><svg t="1586840669889" class="icon" viewBox="0 0 1024 1024" version="1.1" xmlns="http://www.w3.org/2000/svg" p-id="12670" xmlns:xlink="http://www.w3.org/1999/xlink" width="200" height="200"><defs><style type="text/css"></style></defs><path d="M510.864642 956.772876c-246.108211 0-446.338534-200.229301-446.338534-446.338534 0-246.108211 200.229301-446.331371 446.338534-446.331371 246.109234 0 446.337511 200.223161 446.337511 446.331371C957.202153 756.543575 756.973876 956.772876 510.864642 956.772876zM510.864642 144.183843c-201.949478 0-366.256638 164.30102-366.256638 366.250498 0 201.949478 164.30716 366.256638 366.256638 366.256638 201.950502 0 366.256638-164.30716 366.256638-366.256638C877.122303 308.484863 712.815143 144.183843 510.864642 144.183843z" p-id="12671" fill="#dbdbdb"></path><path d="M510.864642 750.651378c-22.118763 0-40.040948-17.922185-40.040948-40.039925L470.823694 310.25723c0-22.118763 17.922185-40.040948 40.040948-40.040948 22.11774 0 40.040948 17.922185 40.040948 40.040948l0 400.354224C550.90559 732.729194 532.983405 750.651378 510.864642 750.651378z" p-id="12672" fill="#dbdbdb"></path><path d="M671.366126 414.242536 350.363158 414.242536c-22.118763 0-40.039925-17.921161-40.039925-40.039925 0-22.118763 17.922185-40.040948 40.039925-40.040948l321.002968 0c22.11774 0 40.040948 17.922185 40.040948 40.040948C711.407074 396.321374 693.483866 414.242536 671.366126 414.242536z" p-id="12673" fill="#dbdbdb"></path><path d="M671.366126 547.712363 350.363158 547.712363c-22.118763 0-40.039925-17.923208-40.039925-40.040948 0-22.118763 17.922185-40.040948 40.039925-40.040948l321.002968 0c22.11774 0 40.040948 17.922185 40.040948 40.040948C711.407074 529.789155 693.483866 547.712363 671.366126 547.712363z" p-id="12674" fill="#dbdbdb"></path><path d="M671.366126 686.732603 350.363158 686.732603c-22.118763 0-40.039925-17.922185-40.039925-40.040948 0-22.11774 17.922185-40.040948 40.039925-40.040948l321.002968 0c22.11774 0 40.040948 17.923208 40.040948 40.040948C711.407074 668.810419 693.483866 686.732603 671.366126 686.732603z" p-id="12675" fill="#dbdbdb"></path><path d="M350.363158 539.13501c0 0 0 0-0.01228 0-22.106484 0-40.027645-17.933441-40.027645-40.054251l0.025583-118.297266c0-22.10546 17.934464-40.026622 40.039925-40.026622 0 0 0 0 0.013303 0 22.106484 0 40.027645 17.934464 40.027645 40.054251l-0.025583 118.297266C390.404106 521.213849 372.469642 539.13501 350.363158 539.13501z" p-id="12676" fill="#dbdbdb"></path><path d="M671.340543 685.949774c0 0 0 0-0.013303 0-22.106484 0-40.027645-17.933441-40.027645-40.054251l0.026606-138.238434c0-22.106484 17.933441-40.027645 40.039925-40.027645 0 0 0 0 0.013303 0 22.10546 0 40.027645 17.934464 40.027645 40.054251l-0.025583 138.238434C711.381491 668.029636 693.44498 685.949774 671.340543 685.949774z" p-id="12677" fill="#dbdbdb"></path></svg>