<?xml version="1.0" standalone="no"?><!DOCTYPE svg PUBLIC "-//W3C//DTD SVG 1.1//EN" "http://www.w3.org/Graphics/SVG/1.1/DTD/svg11.dtd"><svg t="1586443300715" class="icon" viewBox="0 0 1024 1024" version="1.1" xmlns="http://www.w3.org/2000/svg" p-id="5179" xmlns:xlink="http://www.w3.org/1999/xlink" width="200" height="200"><defs><style type="text/css"></style></defs><path d="M431.63575949 505.82967412m-62.96858176 0a62.96858176 62.96858176 0 1 0 125.93716352 0 62.96858176 62.96858176 0 1 0-125.93716352 0Z" p-id="5180"></path><path d="M698.92252776 648.06505182c-95.70279591 0-173.55235525-77.85940147-173.55235604-173.55235604a31.72049672 31.72049672 0 0 1 31.70081326-31.4941326h2.69668505l9.18250798-0.05905117c7.78495563 0 18.91616381-0.05905118 32.27164457-0.08857753 25.78582088 0 60.48841871-0.06889329 97.72038864-0.06889329s71.93456774 0 97.7203894 0.06889329c13.35548078 0 24.47684606 0.04920982 32.27164381 0.08857753l9.17266662 0.05905117h2.69668505a31.72049672 31.72049672 0 0 1 31.70081249 31.4941326c-0.01968347 95.69295379-77.87908493 173.55235525-173.58188083 173.55235604zM592.86603563 505.77062294a110.58377349 110.58377349 0 0 0 212.11298423 0c-54.25848548-0.06889329-157.87418224-0.06889329-212.11298422 0zM341.88732289 444.54406076a31.49413262 31.49413262 0 0 1-15.74706631-4.21234051c-7.24365065-4.1729728-10.34385409-9.44823979-13.08974896-14.10346639-1.09245283-1.84043845-2.66715947-4.53712349-4.66506873-7.96211068-3.93676657-6.75155473-9.52697519-16.3769488-16.21947797-27.92151672-12.92243603-22.29194117-30.26389321-52.28026044-48.8355898-84.44364404s-35.87378528-62.18122844-48.71748667-84.51253655c-6.65313586-11.56425216-12.19413465-21.21917182-16.07185006-28.01009426-1.96838367-3.44467065-3.51356394-6.15119782-4.56664908-8.02116185-2.65731734-4.69459431-5.65910191-10.01907111-5.6591019-18.36501671a31.49413262 31.49413262 0 0 1 15.74706631-27.28179211c82.87877875-47.85139795 189.23052827-19.34920779 237.08192698 63.52957098s19.34920779 189.23052827-63.52957097 237.08192621a31.49413262 31.49413262 0 0 1-15.72738284 4.22218263zM244.93460334 182.52271736c27.03574453 47.05420252 78.82390906 136.75343007 106.05649211 183.68952947A110.58377349 110.58377349 0 0 0 244.93460334 182.52271736zM215.60569215 194.24444034zM254.08758573 907.5078125a31.49413262 31.49413262 0 0 1-15.74706631-4.22218186 173.55432429 173.55432429 0 0 1 173.54251313-300.61149796 31.49413262 31.49413262 0 0 1 15.74706707 27.24242517c0 8.36562907-3.00178456 13.69994799-5.6591019 18.40438365-1.05308512 1.8601219-2.59826618 4.5764912-4.56664984 8.02116186-3.87771541 6.78108032-9.41871421 16.43600075-16.07184929 28.01009425-12.84370138 22.33130888-30.14579009 52.34915374-48.71748668 84.51253732s-35.91315299 62.15170285-48.83558978 84.44364327c-6.69250357 11.54456792-12.2827114 21.16996276-16.21947876 27.92151749-1.96838367 3.42498719-3.57261589 6.12167224-4.66506796 7.96210991-2.73605275 4.64538448-5.84609831 9.91081012-13.07990684 14.09362504a31.49413262 31.49413262 0 0 1-15.72738284 4.22218186z m15.68801514-58.80545107h0.05905117z m55.498567-206.33577922a111.10539499 111.10539499 0 0 0-28.78760623 3.81866346 110.65266755 110.65266755 0 0 0-51.54211618 183.05964697c27.22274093-46.93609941 79.05027317-136.70422025 106.09585982-183.75842276a109.15669555 109.15669555 0 0 0-25.76613741-3.11988767z m55.11473206 14.84160988l0.08857753 0.04920982z" p-id="5181"></path></svg>