<?xml version="1.0" standalone="no"?><!DOCTYPE svg PUBLIC "-//W3C//DTD SVG 1.1//EN" "http://www.w3.org/Graphics/SVG/1.1/DTD/svg11.dtd"><svg t="1586840507927" class="icon" viewBox="0 0 1024 1024" version="1.1" xmlns="http://www.w3.org/2000/svg" p-id="9227" xmlns:xlink="http://www.w3.org/1999/xlink" width="200" height="200"><defs><style type="text/css"></style></defs><path d="M511.6 959c-186.3 0-357.5-119.7-421.2-294.9C26 487 82.3 283.2 228.1 164 372.9 45.5 583 30.2 743.2 127.2c159.6 96.6 244 287 208.2 470.2C910.8 805.1 723 959 511.6 959z m250.5-710c-5.6 1-5.1-6.5-8.9-9.9-1.2 5.7 2.5 13.1 1.6 16.5-2.8 11-9 8.2-16.6 10.2 3.2 7.2 14.9 2.1 18.6-1.1 5.2-4.4 1-15 10-13.3-1.1-2.7-2.7-3.5-4.7-2.4-1 0.2 0.5-0.2 0 0z m11.4 9.4c-1.8-0.3-1.1-1.3-2.7-3-0.5 6.4 5.8 6.2 2.7 3-0.4-0.1 0.7 0.7 0 0z m98.1 304.3c0.7-4.7 4.6-18.9 2.6-23.1-2.4-5.1-6.3 2.1-5.7-5.2-7-0.5-6.5 14.9-5.7 17.4 1.1 3.5 6.3 7.2 8.8 10.9 1.1-7.7-0.2-0.4 0 0z m-711.7 36.4c3.5-9.8 6.5-2.7 11.1-8.8-3.5-7 0.1-3.5-10-3.7 8.4 0.1-5.9 7.4-2.8 1-1.2 2.6-0.1-0.7-2.8-1 0.4 1.3 2.3 12.9 4.5 12.5 0.9-2.7-0.4 0 0 0z m14.9-145.5c-0.2 0.8 1.6-0.4 0 0-0.1 0.2 0.2-0.1 0 0z m-6.3-63.4c0.1 0.2 0.1-0.3 0 0 0 0.1 0 0 0 0z m101.1-141.4c-4.8-0.4-1 0.2-0.8-0.6 1-4-4.8 3.8-0.1-1.7-1.5-0.5-2.9-1-4.3-1.7 0.4 0 2.9 0.9 3.3 0-1.9-3.3-6.5 2.4-6.7 2.5 2.5 0.8 8.3 1.4 8.6 1.5-0.3-0.1 0 0 0 0z m-16.7 6.1c-1.2 1.3 1.5 0.9 0 0-0.2 0.2 0.3 0.2 0 0z m101.2-71.8c3.8 2.6-0.6 0.3-3.1 1.5 3.5 0.7-3.3 2.5-3 3.3 3.6-0.9 7.4-2.5 10 1.4 1.4 2.2-8.7 1-9.1 1.1 0.1 0.4 3.2 0.6 0.4 1.1 0.6 0.3 4.8-0.5 5.6 0.4 1.7-1.3-7.4 5-4.5 1.9 2.8-0.2 7.1-2.9 6.9 1.5 0.7-0.4 6.1-3.9 6.5-1.3 0.5 2.8-8 3-9.1 2.9 0.7 1.9 9.4 6.8 10.9 5.6-3.2 2.3-6.1 5.1-10.6 2.7 0-1.3 4.3 0.5 4-1.5-1.7 1.3-6.9 2.6-7.9 2.5 2.4 2.3-0.8 3.2-4.5 4.3 0.1-1.2 0.8 3.4-0.1 2.8-1.9-1.3 7.7-2.3 7.7-2.3-0.9 1.1-3.6 2.2-4.1 2.9 0.4-0.2 7.3-2.3 8.1-0.7 1.5 3-5.3 0.6-0.4 3.5 4.9-3.9 9.6-0.4 14-1.4 0 0 0.6 2.9 1 3.1 0.2-0.1 8.6 2.3 7.2 4.7-1 1.7-4.4-0.1-4.9-1.4-1.5 0.9-1.1 1.4-7.3 1-6.2-0.3-13.8-3-20.5-2.1 0.5 0.9 6.3 0.9 6.1 1.7-1.2 0.3-1.7 0.7-1.5 1.4 4.8 1.5 18 0.2 1.7 4.4 5 2.3-2.1 2.2-0.4 5 0.8 0 10.6-3.6 10.2-2.8-0.2 0.3-6.1 4.6-6.4 4.4 6.7-0.6 16.4-6.7 23.1-9.4 1 5.1-13.8 25.2-23.8 24.6 4 4.2-7.7 0.5-8-0.1-0.2 0.1-0.4 0.3-0.4 0.6 4.1 4.8 1.8 2.1-0.5 8.8-0.5 1.4 1 3.5 0.4 4.8-1.4 2.9-7.5 4.4-7.5 4.5-0.2 3.2-6.3 4.8-6 7.8-0.5 0.1-1 0.1-1.5-0.1-1.1-0.7 1.3-5 1.6-5.5-1.2 0.5-4.9 1.4-5.2 3.8 1.4 0.2 2 1 1.8 2.3 1.8 1.9-5.8 0.6-5.5 0.5 1.7 3.6-4.4 0-3.4 2.6 8.5-1.6-3.3 3.6-3.6 3.7 2.4 1 5.4 2.7 5.6 4.9-1.3 0.7-4.1 1.3-5.6 1.8 0.1 0 6.8 1.6 5.7 3.1-0.7 0.9-4.2 0.1-5 0.1 1.1 0.5 3 1.2 4.3 0.5 0.3 1.9-4.1 3.3-4.2 3.4 0 0.2 5.2 4-1.4 0.9 1.4 3.8 1.7 2.2-2.3 4.7-0.2-0.2 2.9 2.5 2.7 2-1.2 0.5-2.5 0.4-3.9-0.4 3.8 3 3.7 5.6 5 5.4-0.4 0.4-3.1 6.8-4.6 4.2 0.5 0.9 5.2 1.2 0.7 2.8 1.3 0.7 3.4 0-1.2 0.8 0.7 1.8 3.2 0.4 4.3 0.4-1.5 1.4-3.4 2.3-5.5 2.5 0.4 1.1 5.2-0.7 4.2 1.7-0.4 1-10.3 2.4-12.1 2.1-0.2-0.3 1.6-4.1 1.7-4.3-0.9 0.5-1.7 1.2-2.4 1.9-1.7-2.2-3 1-4.1-0.9 0.1-0.1 3.2-2.5 3.2-2.8-0.6-0.3-1-0.7-1.2-1.3-1.1 0.9-2 0.9-3.1 1.8 0.3-1 3.1-2.2 0.5-3.1-2.4 0.9-7.7 5.8-12.1 4.6 5.4-1-0.9-1.5-0.7-1.4-1-0.8-1.3-1.3-3.6-2.4 5.5-1.3-3 0-3.5-0.5 2.6-1.1 2.9-2.7-1-2 0.6-0.7 1.2-1.3 2-1.6-1.9-3.5-4.2 0.9-4.4-7.5-2.7-0.7-2.1 1.3-4.6 0.8-1.6-1.9-3.1-2.7 0-5.2-4 0.7-2.5 0.9-5.4-0.5 1.7-6 1.1 5.1 0.2-1.9 1.6 0.3 5.4-1.3 7-1.9-2.1-2.4-6.2 3.5-7.9 0.8 5-5.9 5.1-1.6 11.1-2-0.3-1-7.1-5.6-7.1-5.7-0.1 0.5-4.4 8.9-5.9 7.3-1-0.9 1.3-5 2.2-5.2-3.1-2.7-4.7-1.4-1.6-4.8 0.4 1.3-6.1-0.9-6.4-1 0.2-0.9 0.9-1.5 2.1-1.7-1.6 0.9-2.6 0.8-3-0.4 2.1-4.9 12.8-5.6 16.1-8.4-2.8-0.8-16.4 5.8-16.7 7 1-0.5 1-0.8-0.1-0.8-2.2-1.4 7.8 0.9 1.4-2.9 1.6-0.3 3.1-0.7 4.7-1.2-0.1 0.1-6.1-1.8-6.9-2.4 3.8-1.1 8.3-1.5 12.2-0.9-3.8-3.6-8.1 1-12.4-0.6 4-3.6 7.9-3.1 12.9-3.2-0.3-1 0.6-1.4 0.4-2-4.5-1.3-8.3 4.5-12.7 3.6-2.3-2.5 6.2-3.7 6-3.6 0.4-0.2-3.2-0.6-2.7-1.4 3.3-0.6 7.4 1.7 10.5 0.6-1-1.3-3.3-3-3.6-2.6 0.8 1.3-6.5 1.3-7.9 1.2 1.2-0.4 10.9-4.8 10.7-4.8-6.5 1.3 2.5-2.8 2.5-3.1-1.5-1-1.2-0.2-3.2 0.1-0.3-1.7 1.7-4.3 2.7-6.5-3 1-12.4-2.6-14.1-0.9 0.7 0.1 8.4 3.4 7.6 4.7-0.7 1.3-10.4 4.4-9.8 1.8 0.8-0.6 1.6-0.9 2.6-0.8-7.3-7.3-29.9 27.2-32.9 31 2.3-0.5 4 0.7 5 3.7-1.8 0-2.8 0.2-2.8 2 5.9 0 8.5-0.5 13.9 3.3-1.4 4-3.3 0.4-5.9 2 0.5 1.1 1.3 2 2.4 2.8-4.8 0.7-7-0.8-5.3 6.1-6.2 0-8.2-7.3-14.6-10.1-2.4 3.3-2.1 2.5-4.1 5.5 2.3 4.7 7.1 6.4 11.8 8.7-3.4 0 2.8 5.2 2.6 7.5-1.4-1-2.6-2.4-3.4-4-0.3 2.3 1.8 8.7 2 9-3.7-1.5-9.1-5.9-12.3-8.4 0.7 3.8-1.6 0.3-4.4 0.3 0.6 5.1 10.1 6.7 11.9 12.5-6.9-2.5-26.6-14.1-23.5 2.4 0.7 3.6 8 1.9 9.3 4.7 1.4 3-2.5 11-1.3 12.5 12.6 0 14.1 3.6 20.7-9.7 3.2 3.3 14.5 18.2 13.4 20.4-1.4-0.5-2.7-0.5-3.8 0.1 2.3 3.4 9 5.2 7.1 9.7 5 0.2 7.7 1.5 12.8 2.8-2.3 4.2-10.4 1.8-11.4 7.2 9.8-3.9 24.2-2.5 14.8 9.1-6.1 7.6-21.6 5.7-30.3 7-11.6 1.7-22.5 5.9-28.5 18.6 3.9-3.1 23.7-20.9 27.9-9.7-0.9 1.9-9.3 3.1-9.3 3 1.7 0.2 6.2 0.8 7.3 1.6-1.1 1.1-1.6 2.2-2.8 3.4 1.7-0.1 4 3.8 6.4 5-0.2 0.1-1.2 0.3-1.2 0.5 4.7 0 11 1.5 12.8 3.8-6.1 2.4-22.6 10.4-20 3.5-0.5 0.9-1 1.1-1.5 0.6 1.5-2.9 8.7-4.5 11.6-4.4-1.1-1.9-3.2-1.8-6.2 0.1 0.2-1.3 1-2.3 2.6-2.8-1.8 0 0.6 1.1-1.5-0.6 0.9 2.6-8.4 5.4-10.1 4.1 2.1 4.7-7.2 3-6.8 3 0.3-0.7-14.9 17.9-4.9 13.6 0 0.3-4.6 2.3-4.8 0.3-1.6 0.7-12.2 6.8-11 3.1-1.3 3.5-0.4 7.7-4.4 10.7-0.5-0.2-2.2-4.7-1.9-4.4-1.5 0.9 3.1 11.4-2.5 12.7-1.1-3.2-2-10 0.4-10.6-0.7-0.1-0.7-0.4-0.3-1-1.8 1.3-3.4 1.9-1.8 5.9-1.9 0-0.8-4.3 0.2 1.3-1.8-1-1.9-1.7-3.8-1.6-0.5-2.4 5.6 5.7 3.3 3.4-3.5-3.1 0.9 0.4 1 1.7-0.6 0-1.1 0.7-2-0.4 0.9 0.7 1.7 0.9 1.8 2.1-1.3 0-1.8-1.8-2.8-1.2 2.2 4.3 4 1.4 4.7 5.4-1.1 0-2.9 0.3-3.7-1 0 3.9 2.8-0.6 2.8 3-0.1-0.2 1.2-3.1 1.3-0.2-1.3 2.1-4.1 1.2-5.4 0.7 0.4 0.6 2.2 0.9 2.2 1.4-0.7 1.4-1.4 1.5-2.2 0.4 0.7 1.8 1.8 0.4 3 0.9-2.8 5.6-15.3 6.7-18.8 13.3-5.6 10.8 5.7 19.7 1.8 31.5-7.6 0-9.3-17.2-13.4-21.5-0.5 10.5-0.5 20.5-0.1 31 10.8-5 30.8 5.6 38.3 11.2-0.8 1.7-12.8 1.3-14.2 1.2 0-0.7 2.2-2.2 2.2-2.8-5.8-4.2-15-3.4-20.6-7.8 5.8-1.6-4.2-1.2-5.5 0.7-3.6 5 4.1 53.8 7.3 55.7 4.8 2.8 23.1-7.6 16 6.3 1.5-0.5 6.2-5.9 7.1-1.4-1.5 1.8-7.2 8.3-2.2 12.1 3.6-0.7 1.2-7.1 0.3-7.7 2.6-0.6 5-1.6 7.2-2.9-1.2-1-1.3 0.3-2.3-1.4-2.4 6.7 33.5 5.7 33.4 5.5-0.6 1.2-1.8 0.6-3.1 0.5 0 3.5 6.4 3 8.8 4.7-0.2 0.3-3.9 3.5-3.9 3.4 6.7 0.4 12.2 0.3 13.3 8.2 0 3.8 58.4 8.3 26.1 33 1.3 0.9 3.7-1.2 4.7-1.5 2.3 5.5 6.4 0.6 6.4 4.9 9.4-4.6 16.6-8.6 19.6 3.3 9.7-6.5 35 3.9 38.7 13.1 3.1 7.7-9.8 26.7-14.9 26-0.2 11.2-1.5 21.6-5.4 30.8-5.5 12.9-7.8 9.3-19.1 14.4-4.5 2.1-13.2 5.3-16 9.6-1.3 1.9 1.3 9 0.2 11.6-1.9 4.5-8 13.1-11.5 16.2 1.5-2.1 2.6-4.3 3.5-6.8-0.8 0-1.7-0.1-2.5-0.3 0 12.2-7.1-4.7 3.5 11.8 5.6 8.7 19 16.7 27.2 23 18.9 14.5 39.3 27.2 60.7 37.7 41.2 20.3 86.1 32.6 131.9 36.2 81.8 6.4 164.5-15.3 232.5-61.5 64.8-44 114.5-108.8 140-182.8 5.2-15.2 15.4-38.5 13.5-54.6-0.4-3.2-5.3-11.4-5.9-12.8-0.4-1-6-8.1-5.6-6.1-0.8-4.3 1.9-7.4 1.2-11.3-0.6-3-1.2-26.8-7.2-26.8-0.7 6.6-8.9 6.9-10.9 5.4 0.2-8.1 0.7-9.4-2.8-13.3 1.9-0.4-10.8-14.9-11.7-16.2-6.1 5.9-5.5 2.4-11.7 6-6 3.5-21.1 16.2-26.3 22.5-3.5 4.3-10.6 25.5-8.8 29.2-5.7 1.9-4 6.2-10 2.3-2.7-1.8-5.3-13.3-6.9-17.2-4.6-11.1-12.4-27.8-9.3-39.1-4.4-0.2-9.3 13.7-15.6-0.8 1.4 0 6.2 0.3 6.1-2.4-7.6 2.7-9.2-5.9-13.3-7.8-5.4-2.6-6-2-13.9-2.7-6.1-0.6-13.2 2-19.3-0.1-2.5-0.9-8.8-7.2-9-7.2-4.2-1.1-6.9 2.9-9.9 1.8-7.2-2.6-9.6-7.8-15.1-11.3-6.6-4.1-6.2-8.4-12.5-0.7 8.8 4.3 7.4 13.8 12.9 21.1 0.6 0.1 0.8-6.3 1.7-6.9 3 0.4-0.2 7 4.8 8.4 10.6 2.9 8.7-9.1 16.4-9.1 0.9 9.6 12.8 9.8 14.1 17.1 0.8 4.9-13.2 16.4-15.6 18.3-6 4.8-41.7 26.8-50.1 21.3-3.9-2.6-2.2-10.2-3.8-14.2-2.5-5.9-7.7-11.1-10.8-16.4-5.4-9.3-11.4-18.4-16.6-28.4-5.6-10.9-6.5-15.1-4.3-28.5 0.6-3.6 5.6-14.2 3.6-16.9-12.4 0-25.5 5.7-33.8-0.7-5.6-4.2-2.9-7.3-2.9-12.6-13.6 2 10.9-6.7 8.9-4.1-0.4-0.3-0.8-0.4-1.3-0.4 0.6-1.6 2-2 4.3-1.2 0 1.1-3.4-1.3-3.4-1.2-0.6 1.1 16.7-4.7 16.8-4.7 8.8-0.4 11.8 3.8 20.1 4.8 31.4 3.7-0.4-15.7-4.7-21.4 3.2-0.8 3.9-2.7 6.1-4.4-3.8-6.1-4.1 0.8 3.4-5.1-1.3-2.5-19.2 4.2-22.2 5.1 2.2 4.5 6.9 3.7 10.8 4.2-0.9 3.4-21.9 8.5-11.7-2.9-0.3-0.6-6-3.6-6.9-4.6-6.3 4.2-9.6 6.2-13.1 11.7-5.8 9.1-3.6 9.2 1.7 16.3 0.3-0.7-11.7 5.4-12 5.5 1.4-5.3-12.5-6-7.8-0.2 0 0.3-2-1.1-2.6-0.6 1 0.4 1.4 0.9 1.1 1.5-1.1 0.3-2-0.1-2.7-1.3 0 4.4 0.1-1.3-2-1.9-1.4 2.9-2 2.2 2 6.9-1.3 1.7-0.1-1.6-2-0.4 0 1.5-0.9 1.4-0.9 2 2.2 0.7 4.2 1.9 5.9 3.5-0.8 0.2 0.6 1.5-0.4 2.2-2.1-1.4-1-2.2-3.9-1.2 1.3 1.4 1.1 1.1 2 2.2-2.4 0-0.7 0.1-3.2-0.6 0 1.6 0.4 3.1 1.3 4.5-1.3-0.9-2.1-0.7-2.4 0.5-10-5.1 2.9-8 2.9-7.7-10.2-0.7-10.2-6.5-14.6-12.9-2.7-3.9-13.9-16.9-16.4-16.7-1.7-1.7-3.3-3.5-4.8-5.4-0.1 1.3-0.7 2.3-1.9 2.8-1.2-3.1-0.1-3.7-0.8-4.8-20 1.2 20 27 19.1 29.5-12.1-7.9-3.8 13.3-11.2 8.4 0-7.7-1.3-9.6-5.9-13.4-4.1-3.4-10.8-10.2-15.3-12.7-6.2-3.5-5.5-2.2-12-2.2 1 0-11.3 3.2-10 2.5-1.3 0.7-3.2-0.9-4.1-0.5-2.6 1.3-3 5.2-3.9 5.8-11.8 7.5-10.9 20-22.3 26-13.7 7.2-16.5-5.9-27.1-0.7 0-4.3 0.4-8.2-0.1-9.1-0.6 0.4-1.5 1.9-2.1 0.6 7.2-15.4-3.6-19.2 10.8-23.1 6.4-1.7 15.6 3.1 21.2 0.8 3.8-1.6 0-13.6 3.8-8.9-2.7-12-12.1-7.6-16-15.1 2.7-0.4 1.1-2-0.4-1.4 0.3-4.5 12.4-0.9 13.5-1.8 0.1-2-0.5-3.9-1.9-5.4 2.3 0.2 6.2 4.2 9.2 1.3 2.2 0.7 16.2-17.6 19.2-18.4 1.4 1 0.4 2-0.1 3.2 4.2 0.6-0.2-4.9 8.9-4.9 0.4-1.1 5.5-2.4 7.8-3.6-1-0.4-3.9-8.8-3.9-9.3 0.6-9.5 5.4-6.1 11.2-5.9 0 0-12.6 13.5 0.7 12.3 0.6 0.8 0.2 1.5-1.2 2-0.4-0.5 13.7 1.6 15.4 2.2-0.1-5.2 25.1-6.2 27.3-9.6 3.6-5.7-0.1-7.9 5.7-13.6 0.9-0.9 5.9 9.8 7.7-3.7-12.3-8.1 11.2-10.9 15-7 0.3-5.2 3.8-0.1 8.1-3.1 0.4 0.7-8.9-4.6-6.6-4.8-0.9 1.5-8.1 3.3-8.1 1-1.1 8.8-35.4 0-16.1-20.2 0 1.7 8.7-7.2 11.2-7.1 0.4-7.2-8.6-7.4-12.5-5.7-5.7 2.4-4.8 8.9-8.5 13.7-3.7 4.8-10.3 4.8-11.4 9.9-2.2 10.5 6.4 6.6 6.6 14.5-0.6 0-11 2.2-10.7 1.6 2.8 0 6.3 0.3 8.6 0.3 0 0.1-3.3 5.7-3.3 1.8-2.7 1-1.7 2.8-5.2 2.9 1.1 5.5 0.7 9-2.8 15.3-3.4-3.5-7.5 4.8-12.2 3.8 1.7-8.4-7.1-17.2-9.1-24.9-6.5 4.7-17 16.4-20.8 3.7 0.2 0 1.9 0.7 2.3 1-0.7-0.9 0.5-0.3 0.5-1-1.9 0.1-0.4-2.8-0.3-3.2-2.1 2-0.5 1.1-1.8 0.1 0.1 1.6-1.6 1.4-2 1.2-0.7-1-0.4-1.9 0.7-2.5 0.4 0.9 2 1 3.2-0.6-3.4 1.4-3.6-5.2-3.2-7.6 0.7-3.9 6.8-10.6 6.7-11.4 5-5 15.3-7.2 21-14.9 2.1-2.8 5.4-10.7 6.8-12.2 7.4-8.1 15.8-14.4 26.5-20.2 1.1 0.7-0.1 2.4-0.3 3.3 5.6-4.2 14.9-12.1 23-11.5-1.9 1.4-2.9 3.2-3 5.6 3.5 0.4 5.9-12.1 6.3-2 3.2-1.5 8-9.5 5.1-0.2 0.7 0.1 11.4-5.1 11.9 0.8-2.6 1.4-5.3 1.9-8.3 1.3 2.6 3.3 15.3 4.6 18.5 5.2 4.4 0.9 14.8 4.2 21.4 8.3 8 4.9 17.9 10.3 1.6 14.9-7.6 2.1-21.9-9.2-27.2-6.5 2.8 2.6 7.9 5.2 9.7 7.8 2.3 3.4-6 1.4 0 6.9 2.9 2.6 7.5 8.4 13.1 6.3 3.4-1.3-5.1-4.4-5.2-6.3 3.4-3.2 10.8 0.7 15.3 2.1 5.2-7.5-9.8-2.1 2.9-9.4 6.3-3.6 5.4-1.2 12.3-0.8 0-6.6-1.5-10.5-0.8-16.9 5.2-1.3 9.1 0.7 11.4 5.3-3.1-0.7-5.5 0.3-7.1 2.8 11.9 9.2 24.7-10.6 36.8-10.6-0.4 3.5-2.3 2.8-2.3 4.8 5.3 1.8 9.5-2.2 15-2.7 2.5-0.2 13.8 0.2 11.5 1.3 3.9-9.4 5.4-13 21.5-6.5 4.9 2 11.5 9.8 15.4 5.3 3.9-4.6-6.7-6.4-8.3-8.9 0.7-3.9 6.5-12.8 6.3-14.2-1.2-11.7 12.4 10.3-5.9-10.7-6.1-7.1-17.7-12.4-25.4-17.3-2.8 1.6-10.5 6.3-13.4 9.2 4 6-3.5 3.3-6.6 3.9-15.6 3.2 0.4-4.8 0.4-4.9 2.5-5.1 2.8-8.2 12-12.8-104.3-60.7-233.8-66.1-342.6-13.8 0.3 0.2 47.8-23 0 0z m2.5 17.6c0.2 0.3 0.1 0 0 0 0 0.1 0 0 0 0z m314.8 207.9c1.5 0.7-9.7-13.7-9.7-14.3 1-1.1 3.7 0.9 5 0-3.4-4.6 2.3-4.3 6.9-3.8-3.6-7.1 0.2-11.2-13.4-6.2-10.7 3.9-10.2 5.9-10.1 15 0.6 0-0.1-1.6 0.9-1.6 0 9.1 10 11.4 11.3 17.8-3.9 0-4.3 3.4-4.9 6.1-0.5-0.3-0.8 13.7 11.7 11.6 13.7-2.3 3.7-12.4 4.5-12.9 0-2 2.3-0.6 2.3-1.3-1.6-0.5-5.4-4.4-2.9-7.2 1.1 2.1 6.2 2.4 7.2 0.4-4.7-9.4-9.2 0-8.8-3.6-0.2 0-0.1 0.3 0 0z m-106.6 1.2c-1.4-2.8-1.3 1.4 0 0-0.1-0.3 0 0.1 0 0zM684 217.3c6.8 2.4-2 3.3-1.1 7.4 0.8 4.1 6.8 9.6 6.9 12.5-6.4-0.1-8.8 0.6-14.4-0.4-0.2-2.2 2.2-1.6 2.6-3.3-13.6-4.2-9.4-0.6-7.2-7.3 1.5-4.4 1.7-10.4 13.2-8.9 0.9 0.4-2.4-0.3 0 0z m-121.6-52.8c-7.3 3.8-12.6 3.9-20.9 3.5 0-3.4 3.9-1.7 3.9-5.4-5 0.8-9.9 0.5-14.8-0.9 2.5-2.5 3.9-3.9 6.3-7 6.3 7.4 8 2.8 13.6 0.3-1.9 6.6 23.9 0.4 11.9 9.5-1.1 0.5 1.5-1.1 0 0z m-28.3 3.3c2.8 0.4 5.2 1.6 7.1 3.8-13.6 6.5-9.6 22.9-26.3 12.7 2.6-2.8 6.5-0.4 9-3.7-3.8-3.5-8.9 3.4-11.4-1.9 0.4 0 10.9-2.7 10.9-4.3-1.4-0.2-26.9-0.5-16.6-5.3-2.7-4.1-5.1 2-6.5-4.5 7.2-5.5 8.4 0.8 13.2 1.8 0-1.2 0.2-2.3 0.6-3.4 4-1.7 4.2 4.6 7.6 5.3 2.6-2.3 1-14.4 6.7-2.3 4.5 2.1 0.1-5.5 5.7 1.8 0.9 0.6-0.8-1.1 0 0z m-77.2 190.9s4 0.5 4.4 0.5c0 2.9-27.3 7.1-29.2 6.6 2.6-5.1 10.6-4.5 12.4-8.1-3.1 1.3-7.6 1-10.2-1.2 5.1-5.1 2.7-3 2.7-5.4 3.3-6.5 6.8 1.4 7-7.5-3.1 0-3.4-0.9-1.2-3.7-3.1-0.8-5.4 1-8 0.4 0.4-2.7 2.3-5.4 1.8-7.6-1.4-0.1-2.7 0.6-3.6 2.1 0-1.9 0.6-2.6 1.2-4.4-2.1-1.4-1 1.2-3.1 0.2 3.2-5.4 1.5-16.1 11.8-11.9 0.9 1.6-4.3 3.5-4.4 5.3 0.6 0.8 9.5-1.1 9.2 1.4-0.6 3.8-6.5 5-3.1 6.9-1.4 0.7-2.9 1.1-4.5 1.2 1.1 2.2 21.4 9.7 15.8 18.1 4.4 0.8 12.1 4 1 7.1 0 0.1 1.5-0.4 0 0zM433 335.2c0.5 3.9-1.9 0.5 0 0 0.1 0.5-0.2 0.1 0 0z m-0.5 7.9c-4.3 7.3-0.8 12-12.4 14.8-3.7 0.9-7.5-1.8-7.3-3.3 0.9 0 5.1-1.4 5.4-2.7-3.3 0.4-1.2-1.7 0.9-2.6-0.5-1.3-3.8-0.6-5.1-1.2 0.8-1.1 0.7-1.4 2-2.8-0.7 0-1.3-0.1-2-0.2 0-3.8 4.1-1.9 6.4-1.7-0.7-1.2-0.1-2 1.6-2.4-4.9 0.1 9-8.5 10.5 2.1-0.8 1.4-0.2-1.8 0 0z m-17.2 114.4c1.6-4.2 14.1-20 17.4-20.9 1-0.3 10.8 4.1 13.7 3.8 2.2-0.2 6.3-2.5 8.7-3.1 9.6-2.5 17.8-4.9 27.6-5.6 4.9-0.4 14.8 1.4 18-0.5 0.1 5.7 0.3 8.8-4.2 13.7 0.5 2.5 20.2 11.2 23.8 12.9 19.6 9.3 11.6-6.1 28.2-6.3 6.7-0.1 16.8 7.6 25.2 8.2 8.9 0.6 32.5-6.8 22.1 13.7-2.7 0.6-6.3-8.1-6.7-9.2 0.8-0.3 24.8 59.7 29.3 63.5 0.6-0.2 0.7-0.8 0.4-1.6 4.5 2.5 17.9 12.7 11.1 15.9 0 12.4 31.9-3.7 35.1-0.4 9.1 9.5-26.7 41-30.6 44.9-12.1 11.7-20.4 21.2-17.4 36.1 4.5 22.3 9.9 25.5-9 40.3-15.9 12.4-4.2 11.8-7.6 24.6-1.2 4.5-9.1 10.6-10.4 12.6-9 13.8-15.5 31.6-34 36-5.5 1.3-23.1 2.3-25.4 0-2.7-2.9-1.6-11.4-3.5-16-5.2-12.8-8.9-21.3-13-34.2-5.7-18-11.2-22.6-6.9-41.2 1.8-7.8 4.9-13 2.5-21.6-1.6-5.7-23.1-34.5-14.1-33.5 0-1.2 0.6-13.9-0.5-15.6-2.7-3.7-6.1-1.5-8.2-2.6-1.6-0.9-7.9-2.1-9.9-2.7 0.6 0.2 0.4-1.5-0.7-1.8-11.1-3.2-22.7 0.1-33.9 2-11.9 2.1-36.3 2.9-41.1-13.3 2.7 0-9.5-12.3-7.9-14.2-3.7-4.3-7.9-3.5-8.3-11.3 0 0.4 4.8-31.2 0.5-26.3-1-7.2 9.5-20.6 14.1-25.5 7.5-7.7 11.9-11 15.6-20.8 0.5-1.2-1 2.8 0 0z m-18.2-177.6c-0.6 7.7-28.6 11.2-33.4 5.3 9.1-9.5-1.8-0.9-4.7-5.3 0.5-1.5 8.7-1.7 7.8-3.4-2.3-4.3-7.9 1.2-9.9-2-1.9-2.8 5.4 0.8 2.2-3.4 1.5-0.6 3-0.6 4.5-0.1 0-7.4 4 2.6 5.8 5.2 6.2-5.7 8-5.2 14.3-5.5 6.4-0.3 5.2-4.7 11.9 0.4 2.1 1.5 8.1 7.2 1.5 8.8 0 0.3 0.8-0.2 0 0z m94.8 295.6c-5.3 2.8-0.4-0.7 0 0-0.9 0.5-0.3-0.5 0 0z m141.9 103.1c9.8-3.2-0.7-12.3 1.7-16.6 4.4-7.8 5.7-2.4 10.1-6.7 3.5-3.5 5.8-4.4 6.1-9.8 3.3 0.4 4.1-5.5 5.9-4.7 3.3 1.4 5.8 12.4 3.3 14.6-3.2-2-0.6-2.9-2.3-1.9-0.1 8-4.2 45.4-18 43.4-5.4-0.6-10.8-15.4-6.8-18.3 0.4-0.1-0.6 0.5 0 0z m-39.2-238c-2.5 0.2-6.2 4.2-7.2-0.4 2 0.1 7.2-2 9.3-2.8-2.8 0.9-3.5 1.9-2.1 3.2-1.8 0.1-0.2-0.3 0 0z m-37.9 0.5c0.2-2.1-1.5-2.6-5-1.6 0.3-1.4 0.3-1.1 0.9-1.9 0 1.3 9.2 2.5 10.5 1.7-0.4 2.9-2.6 3.5-6.4 1.8 0-0.2 1.9-0.1 0 0z m-38.6-9.6c-1.9 1.1-10.1-0.8-11.6-3.7 0.7-2.2 10.4-2.3 12.4-1.9 0 0.1-0.8 5.8-0.8 5.6-0.5 0.3 0.2-0.5 0 0z m-22.8-13c0.5 4.2-2.2 1.7-3.7 3.6-5.3-1.1 1.6-19.4 3.7-3.6 0.2 1.2-0.1-0.6 0 0z m-2.7-7.9c0-2.4-4.8-4.8 1.2-8 0.8 0.6 1 8.4-1.2 8 0-0.1 0.2 0 0 0zM369.1 212.7c-1.7 1.7-11.8-1-11.5-1.4 1.2-2 9.1-1.7 10.2-0.3-0.8 0.1-1.5 0.4-2.2 0.8 3.5 0 4.7 0.3 3.5 0.9-0.2 0.2 0 0 0 0z m-7-3.9c-1.1 0.6-4.4 2.2-5.6 1.6 0.2-2.1 12.7-4 5.6-1.6-0.5 0.3 0.8-0.2 0 0z m-7.4-1.3c1.3-0.5 2.7-0.5 4 0.2-1.5 0.8-6 2.6-4-0.2 0.6-0.1-0.3 0.3 0 0z m6.2-16.8c-4-1 0.4-4.9 3.5-2.5 0.9 0.7-3.7 2.5-3.5 2.5-0.3-0.1 0.5 0 0 0z m-1.8 3.2c-5.7 0.9 3.1-2.7 0 0-0.8 0.1 0.9-0.7 0 0z m-1.7-1.8s0.1 0.4 0 0z m3.3 7c-3.7 0.3-4.2-0.5-1.3-2.3 5.4-1.1 2.8 1.8 1.3 2.3-1.3 0.5 0.4-0.2 0 0z m3.7 29.2c-1.1 0.4-6.3 3.8-7.5 3.2-4.7-5.7 14.5-7.1 7.5-3.2-0.3 0.1 0.7-0.4 0 0z m-68.8 92.6c2-6 1.3 3.8 0 0 0.2-0.6 0 0 0 0z m-24.1 92.2c-0.3-2.8-0.3-0.5-2-0.7-0.2-1.7 2-3.1-0.5-4.1-1.5 3.6-3.8 5-6.7 4.1-0.6-2.3 4.3-1.6 4.3-3.7-5-0.6-10.5-0.5-17.9 0.3-1-3 2.5-3.1 4.2-4.8-3.1-0.8 4.7-17.8 11-15.7 0.2 0.4-5.3 8.1-5.2 9.9 3.1-0.7 1.2-2.9 4.8-1.5-4.4 4.4 6.6 2.6 8.5 3.7-0.7 0.9-1.6 1.7-2.6 2.3 2.2 2.2 1.9 0.3 4.2 1.2 0 1.2-2.3 1.7-3 2 0 0.9 0.3 1.7 1.1 2.4 4.3-2.2 4.3 5.9-0.2 4.6 0-0.5 0.8 0.2 0 0z m-1.4 230c-9.1 10.6-9.9-14.5 1.3-3.7-0.4 1.2-0.9 2.5-1.3 3.7-1.2 1.4 0.7-0.8 0 0z m-2.3-389.6c1.7 1.5-3.8 4 0 0 0.8 0.7-0.8 0.9 0 0z m-28.1 164c0.4-2.2 1.4-4.2 3-5.8 4.4 3-1.8 3.3-1.5 6.1 1.9 1.2 2.8-3.7 5.1-0.6-2.1 2.6-4.3 2.8-6.6 0.3-0.5-2.1 0.7 2.9 0 0z m-21.6 128c-2.4 1.2-3.4 0.7-3-1.6 1-1 5.1-0.5 6.1 0.3-0.6 1.4-1.6 1.9-3.1 1.3-1.2 0 1.7 0 0 0z m-0.8 50.1c-0.8-2.1-1-2.3 2.2-2.3 0 3.9-6.2 4.1-2.2 2.3-0.2-0.4-0.5 0.2 0 0z m-11.6-51.9c-2.9-1-6.5 0.6-7.6 3.3-1.5-0.5-11.8-2-12.5-3.5 1.1-2.2 6.1 1 8.6-0.6-2.1-3.1-0.9-2.6-4.7-4.5 0-4.3 19.5 2.8 20.9 4.9-2.5 3.7-1.3-1.2-4.7 0.4-0.3-0.1 1.8-0.8 0 0z m-24.8-79c2.3 5 0.1 0.7 0 0 0.3 0.7 0.1 0.9 0 0z m-0.2-0.6c0.3 0.9 0.1 0.7 0 0 0.1 0.2 0.1 0.2 0 0z m0-0.3c0.1 0.4 0 0.3 0 0 0 0.1 0 0.1 0 0z m-4.7 81.9c-2.2-0.5-4.2 1.7-6.3-1.3 2.7-2 11 2.5 6.3 1.3-1.1-0.3 0.7 0.2 0 0z m607.1 6.8c3.1-10.7 10.9 20 1.2 12.6-3.2-2.4-3.3-10.9-1.2-12.6 0.3-1.1-0.5 0.4 0 0z m-289.4-226c1.4-0.5 3.2-4.1 5.2-3.3-1.6 2.6-7.3 8-9.8 5.5 0.8-2 2.4-2.7 4.6-2.2 1.1-0.4-1 0.1 0 0z m9.4 7.7c1.1 3.7 1.8-0.7 3.5-0.6 0.7 4.4-2.7 2.5 0 4-0.6 0.6-1.3 1.2-2 1.8 0.3 0.7-5.2-7.1-1.5-5.2 0.3 0.9-0.1-0.1 0 0zM203.6 436.9c0-0.9 1.8 2.7 0 0 0 0 0.2 0.3 0 0z m1 0.8c0 0.6-0.1 0 0 0 0 0.1 0 0 0 0z m-24.3 25.2s0-0.2 0 0z m0.3 0.8c0-0.6 0.1 0 0 0 0-0.1 0 0 0 0z m-0.1-0.2c0-0.6 0.1 0 0 0 0-0.1 0 0 0 0z m-0.1-0.3c-0.2-0.6 0.1 0 0 0 0-0.1 0 0 0 0z m0 0" p-id="9228" fill="#dbdbdb"></path></svg>